<svg
        xmlns="http://www.w3.org/2000/svg"
        width="218px" height="211px">
    <path fill-rule="evenodd" fill="white"
          d="M201.140,200.392 C191.934,200.748 178.438,197.850 169.419,192.762 C160.395,187.679 153.198,177.747 147.827,162.965 L139.612,144.252 L134.050,130.750 L97.350,41.703 L73.310,97.426 L65.114,97.197 L104.642,0.198 L115.464,0.198 C115.464,0.198 176.264,156.414 180.988,162.965 C185.826,175.786 196.239,184.105 201.308,187.133 C206.509,190.246 208.999,191.989 217.027,193.194 L217.027,196.767 C217.027,196.767 211.819,199.979 201.140,200.392 ZM106.238,146.783 C112.316,154.494 115.685,166.216 116.313,182.174 C116.371,183.641 116.340,185.050 116.320,186.465 L106.649,181.365 C105.293,176.481 102.935,172.363 99.564,169.006 C94.276,163.747 85.830,159.491 74.194,156.220 L39.180,146.162 C26.911,142.572 17.768,136.736 11.804,128.713 C5.888,120.759 3.191,111.561 3.663,101.191 C4.030,93.139 5.785,86.016 8.902,79.793 L12.116,79.942 C10.746,83.532 10.859,86.356 11.509,91.042 C12.503,98.196 16.044,104.331 20.835,108.707 C25.641,113.103 32.822,116.693 42.348,119.463 L79.311,130.275 C91.251,133.652 100.207,139.139 106.238,146.783 ZM12.574,180.273 C19.433,180.273 24.636,184.714 24.994,191.565 C25.223,195.932 22.056,196.348 22.429,199.640 C23.428,206.684 31.760,210.957 31.760,210.957 C31.760,210.957 21.392,211.296 15.961,209.631 C10.530,207.966 6.087,205.221 3.369,201.626 C1.552,199.222 0.478,196.654 0.153,192.694 C-0.408,185.857 5.714,180.273 12.574,180.273 Z"/>
</svg>
