<svg xmlns="http://www.w3.org/2000/svg" width="177.25" height="172.75" viewBox="0 0 709 691">
  <metadata><?xpacket begin="﻿" id="W5M0MpCehiHzreSzNTczkc9d"?>

<?xpacket end="w"?></metadata>
<defs>
    <style>
      .cls-1 {
        fill-rule: evenodd;
        fill: white;
      }
    </style>
  </defs>
  <path id="Prostokąt_1" data-name="Prostokąt 1" class="cls-1" d="M658.134,656.227c-30.157,1.165-74.367-8.326-103.913-24.992s-53.138-49.189-70.732-97.611l-26.911-61.3-18.22-44.228-120.221-291.7L239.385,318.931l-26.848-.752L342.024,0.429h35.452s199.166,511.734,214.641,533.2c15.849,42,49.963,69.252,66.567,79.169,17.036,10.2,25.2,15.906,51.492,19.856v11.7S693.117,654.874,658.134,656.227ZM347.254,480.615c19.91,25.259,30.943,63.657,33,115.934,0.189,4.806.09,9.421,0.023,14.056L348.6,593.9q-6.665-24-23.211-40.486-25.986-25.841-83.105-41.885l-114.7-32.948Q67.3,460.941,37.9,421.419c-19.379-26.056-28.213-56.185-26.667-90.155q1.8-39.564,17.161-70.1l10.527,0.49c-4.487,11.758-4.118,21.009-1.986,36.361a96.4,96.4,0,0,0,30.549,57.867q23.618,21.6,70.472,35.234l121.085,35.418Q317.713,443.132,347.254,480.615ZM40.426,590.323c22.471,0,39.515,14.548,40.688,36.989,0.748,14.306-9.625,15.667-8.4,26.453,3.272,23.072,30.567,37.071,30.567,37.071s-33.963,1.112-51.754-4.342-32.344-14.449-41.248-26.225C4.322,652.4.8,643.982-.262,631.011-2.1,608.615,17.954,590.323,40.426,590.323Z"/>
</svg>
